<svg xmlns="http://www.w3.org/2000/svg" xmlns:xlink="http://www.w3.org/1999/xlink" width="147.072" height="130.091" viewBox="0 0 147.072 130.091">
  <defs>
    <linearGradient id="linear-gradient" y1="0.5" x2="1" y2="0.5" gradientUnits="objectBoundingBox">
      <stop offset="0" stop-color="#fff"/>
      <stop offset="1" stop-color="#fff" stop-opacity="0.302"/>
    </linearGradient>
  </defs>
  <g id="alpha_window" transform="translate(-124.53 0)">
    <path id="Path_1" data-name="Path 1" d="M708.572,152.285v56.554H561.5V152.285a73.532,73.532,0,0,1,69.291-73.416q2.1-.123,4.245-.12c.811,0,1.622.012,2.424.041a73.291,73.291,0,0,1,49.571,21.5c.4.4.787.8,1.18,1.2a74.088,74.088,0,0,1,5.656,6.672A73.2,73.2,0,0,1,708.572,152.285Z" transform="translate(-436.97 -78.748)" fill="#3f3d56"/>
    <circle id="Ellipse_1" data-name="Ellipse 1" cx="19.378" cy="19.378" r="19.378" transform="translate(215.597 32.524)" fill="#6c63ff"/>
    <circle id="Ellipse_2" data-name="Ellipse 2" cx="2.224" cy="2.224" r="2.224" transform="translate(230.845 36.336)" opacity="0.2"/>
    <circle id="Ellipse_3" data-name="Ellipse 3" cx="2.224" cy="2.224" r="2.224" transform="translate(234.657 58.573)" opacity="0.2"/>
    <circle id="Ellipse_4" data-name="Ellipse 4" cx="1.588" cy="1.588" r="1.588" transform="translate(243.87 46.819)" opacity="0.2"/>
    <circle id="Ellipse_5" data-name="Ellipse 5" cx="5.083" cy="5.083" r="5.083" transform="translate(222.268 48.408)" opacity="0.2"/>
    <path id="Path_2" data-name="Path 2" d="M729.326,366.194l9.652-11.3,9.652-11.3,5.449-6.379c.3-.353-.164-.9-.465-.551l-9.652,11.3-9.652,11.3-5.449,6.379c-.3.353.164.9.465.551Z" transform="translate(-555.266 -261.079)" opacity="0.8" fill="url(#linear-gradient)"/>
    <path id="Path_3" data-name="Path 3" d="M726.326,196.194l9.652-11.3,9.652-11.3,5.449-6.379c.3-.353-.164-.9-.465-.551l-9.652,11.3-9.652,11.3-5.449,6.379c-.3.353.164.9.465.551Z" transform="translate(-553.144 -140.847)" opacity="0.8" fill="url(#linear-gradient)"/>
    <path id="Path_4" data-name="Path 4" d="M804.857,78.788V208.836h-6.672V78.867q2.106-.123,4.245-.121C803.243,78.746,804.053,78.758,804.857,78.788Z" transform="translate(-604.365 -78.746)" fill="#fff"/>
    <path id="Path_5" data-name="Path 5" d="M729.389,163.1H611.725a73.766,73.766,0,0,1,5.655-6.671H723.733A73.758,73.758,0,0,1,729.389,163.1Z" transform="translate(-472.491 -133.69)" fill="#fff"/>
    <circle id="Ellipse_6" data-name="Ellipse 6" cx="1.527" cy="1.527" r="1.527" transform="translate(253.64 84.078)" fill="#e6e6e6"/>
    <circle id="Ellipse_7" data-name="Ellipse 7" cx="1.527" cy="1.527" r="1.527" transform="translate(154.983 71.49)" fill="#e6e6e6"/>
    <path id="Path_6" data-name="Path 6" d="M767.721,272.732l-.762.757-.757-.762-.508.5.757.762-.762.757.5.508.762-.757.757.762.508-.5-.757-.762.762-.757Z" transform="translate(-541.533 -192.886)" fill="#e6e6e6"/>
    <path id="Path_7" data-name="Path 7" d="M479.721,324.732l-.762.757-.757-.762-.508.5.757.762-.762.757.5.508.762-.757.757.762.508-.5-.757-.762.762-.757Z" transform="translate(-337.845 -229.663)" fill="#e6e6e6"/>
    <path id="Path_8" data-name="Path 8" d="M738.721,354.732l-.762.757-.757-.762-.508.5.757.762-.762.757.5.508.762-.757.757.762.508-.5-.757-.762.762-.757Z" transform="translate(-521.023 -250.88)" fill="#e6e6e6"/>
    <path id="Path_9" data-name="Path 9" d="M562.721,124.732l-.762.757-.757-.762-.508.5.757.762-.762.757.5.508.762-.757.757.762.508-.5-.757-.762.762-.757Z" transform="translate(-396.547 -88.213)" fill="#e6e6e6"/>
  </g>
</svg>
