<svg xmlns="http://www.w3.org/2000/svg" xmlns:xlink="http://www.w3.org/1999/xlink" width="20" height="20" viewBox="0 0 20 20"><defs><style>.a{fill:#fff;}.b{clip-path:url(#a);}</style><clipPath id="a"><rect class="a" width="20" height="20" transform="translate(435 341)"/></clipPath></defs><g class="b" transform="translate(-435 -341)"><g transform="translate(435 341)"><path class="a" d="M25.714,12.857V25.714H12.857V12.857H25.714m0-1.429H12.857a1.429,1.429,0,0,0-1.429,1.429V25.714a1.429,1.429,0,0,0,1.429,1.429H25.714a1.429,1.429,0,0,0,1.429-1.429V12.857A1.429,1.429,0,0,0,25.714,11.429Z" transform="translate(-7.143 -7.143)"/><path class="a" d="M4.286,14.286H2.857v-10A1.429,1.429,0,0,1,4.286,2.857h10V4.286h-10Z" transform="translate(-2.857 -2.857)"/></g></g></svg>