<svg xmlns="http://www.w3.org/2000/svg" xmlns:xlink="http://www.w3.org/1999/xlink" width="23" height="23" viewBox="0 0 23 23"><defs><style>.a{fill:#fff;}.b{clip-path:url(#a);}</style><clipPath id="a"><rect class="a" width="23" height="23" transform="translate(237 383)"/></clipPath></defs><g class="b" transform="translate(-237 -383)"><path class="a" d="M19.93,5.029,22.6,7.7a1.331,1.331,0,0,1,.4.977,1.367,1.367,0,0,1-.4.988,1.369,1.369,0,0,1-1.954.012L17.977,6.983,15.305,9.677a1.331,1.331,0,0,1-.977.4,1.419,1.419,0,0,1-1.4-1.4,1.3,1.3,0,0,1,.426-.977l2.672-2.672L13.352,2.357a1.3,1.3,0,0,1-.426-.977A1.31,1.31,0,0,1,13.341.4a1.372,1.372,0,0,1,.988-.4,1.329,1.329,0,0,1,.977.4l2.672,2.672L20.649.4A1.383,1.383,0,0,1,22.6.4a1.331,1.331,0,0,1,.4.977,1.331,1.331,0,0,1-.4.977ZM14.564,18.074l1.954-1.954a1.593,1.593,0,0,1,1.179-.269,8.86,8.86,0,0,1,1.718.269,7.182,7.182,0,0,1,1.415.494,4.285,4.285,0,0,1,1.841,1.47q.584.887.089,1.4l-2.4,2.381a4.014,4.014,0,0,1-2.638,1.112,9.122,9.122,0,0,1-3.57-.517,18.527,18.527,0,0,1-4.086-2.032,24.718,24.718,0,0,1-4.12-3.345A25.026,25.026,0,0,1,2.6,12.977,18.167,18.167,0,0,1,.565,8.891a9.176,9.176,0,0,1-.517-3.57A4,4,0,0,1,1.161,2.694L3.54.315Q4.012-.157,4.786.4A7.633,7.633,0,0,1,6.437,2.223a5.859,5.859,0,0,1,.651,2.166,3.035,3.035,0,0,1-.18,2.144L4.955,8.487a10.829,10.829,0,0,0,2.133,3.593,26.627,26.627,0,0,0,3.862,3.873A10.3,10.3,0,0,0,14.564,18.074Z" transform="translate(236.982 383)"/></g></svg>