<svg xmlns="http://www.w3.org/2000/svg" xmlns:xlink="http://www.w3.org/1999/xlink" width="18" height="18" viewBox="0 0 18 18">
  <defs>
    <clipPath id="clip-path">
      <rect id="Rectangle_92" data-name="Rectangle 92" width="18" height="18" fill="#fff"/>
    </clipPath>
  </defs>
  <g id="call" clip-path="url(#clip-path)">
    <g id="bxs-phone-call" transform="translate(0 0)">
      <path id="Path_45" data-name="Path 45" d="M18.947,10.419h1.895a8.342,8.342,0,0,0-8.535-8.525V3.789A6.418,6.418,0,0,1,18.947,10.419Z" transform="translate(-2.841 -1.895)" fill="#195bff"/>
      <path id="Path_46" data-name="Path 46" d="M12.315,7.579c1.993,0,2.842.849,2.842,2.842h1.895c0-3.055-1.681-4.737-4.737-4.737Zm3.242,5.157a.948.948,0,0,0-1.318.041l-2.267,2.331A5.436,5.436,0,0,1,9.2,13.535a5.416,5.416,0,0,1-1.573-2.772l2.33-2.268A.947.947,0,0,0,10,7.177L6.5,3.328a.947.947,0,0,0-1.318-.083L3.124,5.008a.947.947,0,0,0-.275.615,14.307,14.307,0,0,0,4.065,10.2,14.344,14.344,0,0,0,9.858,4.072c.191,0,.309-.006.34-.008a.94.94,0,0,0,.614-.275l1.762-2.056a.947.947,0,0,0-.081-1.318l-3.85-3.5Z" transform="translate(-2.841 -1.895)" fill="#195bff"/>
    </g>
  </g>
</svg>
