<svg xmlns="http://www.w3.org/2000/svg" width="138.117" height="30.647" viewBox="0 0 138.117 30.647">
  <g id="partyapp_logo" transform="translate(-388.883 -38)">
    <text id="PARTYAPP" transform="translate(422 61)" fill="#fff" font-size="21" font-family="SegoeUI-Bold, Segoe UI" font-weight="700"><tspan x="0" y="0">PARTYAPP</tspan></text>
    <path id="Exclusion_1" data-name="Exclusion 1" d="M-2026.229-9.353a3.344,3.344,0,0,1-1.007-.155,3.018,3.018,0,0,1-1.818-1.526,2.6,2.6,0,0,1-.1-2.073l4.974-13.226a8.95,8.95,0,0,0-.052.96,9.3,9.3,0,0,0,3.526,7.193l2.633-7a2.6,2.6,0,0,0-.1-2.074,3.017,3.017,0,0,0-1.817-1.524,3.344,3.344,0,0,0-1.007-.155,3.086,3.086,0,0,0-2.923,1.91l-.26.693a9.34,9.34,0,0,1,3.384-6.158A11.044,11.044,0,0,1-2013.719-35c5.8,0,10.512,4.318,10.512,9.626s-4.716,9.626-10.512,9.626a11.068,11.068,0,0,1-6.987-2.433l-2.6,6.918A3.086,3.086,0,0,1-2026.229-9.353Z" transform="translate(2418.206 78)" fill="#00cd69"/>
  </g>
</svg>
